<?xml version="1.0" encoding="utf-8"?>
<!-- Generator: Adobe Illustrator 19.0.0, SVG Export Plug-In . SVG Version: 6.00 Build 0)  -->
<svg version="1.1" id="Layer_1" xmlns="http://www.w3.org/2000/svg" xmlns:xlink="http://www.w3.org/1999/xlink" x="0px" y="0px"
	 viewBox="0 0 96 96" style="enable-background:new 0 0 96 96;" xml:space="preserve">
<style type="text/css">
	.st0{enable-background:new    ;}
	.st1{fill:#8E270E;}
	.st2{fill:#80230D;}
	.st3{clip-path:url(#XMLID_29_);enable-background:new    ;}
	.st4{fill:#85240D;}
	.st5{fill:#8A260E;}
	.st6{fill:#8F270E;}
	.st7{fill:#E63F17;}
</style>
<g id="XMLID_8_">
	<g id="XMLID_53_">
		<g id="XMLID_56_" class="st0">
			<g id="XMLID_98_">
				<polygon id="XMLID_99_" class="st1" points="58.6,41.9 54.3,41.9 65.9,41.9 70.3,41.9 				"/>
			</g>
			<g id="XMLID_96_">
				<rect id="XMLID_97_" x="54.3" y="41.9" class="st2" width="4.3" height="31.7"/>
			</g>
			<g id="XMLID_94_">
				<polygon id="XMLID_95_" class="st2" points="70.3,41.9 65.9,41.9 45.8,21.5 50.2,21.5 				"/>
			</g>
			<g id="XMLID_92_">
				<polygon id="XMLID_93_" class="st1" points="41.7,73.7 37.4,73.7 54.3,73.7 58.6,73.7 				"/>
			</g>
			<g id="XMLID_90_">
				<polygon id="XMLID_91_" class="st1" points="30.1,41.9 25.7,41.9 37.4,41.9 41.7,41.9 				"/>
			</g>
			<g id="XMLID_84_" class="st0">
				<defs>
					<path id="XMLID_89_" class="st0" d="M50.2,92.6l-4.3,0c-24.4,0-44.2-20.1-44.2-44.9S21.4,2.8,45.8,2.8l4.3,0
						C25.7,2.8,5.9,22.9,5.9,47.7S25.7,92.6,50.2,92.6z"/>
				</defs>
				<clipPath id="XMLID_29_">
					<use xlink:href="#XMLID_89_"  style="overflow:visible;"/>
				</clipPath>
				<g id="XMLID_85_" class="st3">
					<path id="XMLID_88_" class="st4" d="M50.2,92.6h-4.3c-24.4,0-44.2-20.1-44.2-44.9C1.6,29.7,12,14.2,27,7l4.3,0
						c-15,7.2-25.4,22.7-25.4,40.7C5.9,72.5,25.7,92.6,50.2,92.6"/>
					<path id="XMLID_87_" class="st5" d="M31.4,7L27,7c3.3-1.6,6.9-2.8,10.6-3.5l4.3,0C38.2,4.3,34.7,5.5,31.4,7"/>
					<path id="XMLID_86_" class="st6" d="M41.9,3.6l-4.3,0c2.7-0.5,5.4-0.8,8.2-0.8l4.3,0C47.4,2.8,44.6,3.1,41.9,3.6"/>
				</g>
			</g>
			<g id="XMLID_58_">
				<path id="XMLID_59_" class="st7" d="M50.2,2.8c24.4,0,44.2,20.1,44.2,44.9S74.6,92.6,50.2,92.6S5.9,72.5,5.9,47.7
					S25.7,2.8,50.2,2.8z M58.6,41.9h11.6L50.2,21.5L30.1,41.9h11.6v31.7h17V41.9"/>
			</g>
		</g>
	</g>
</g>
</svg>
