<?xml version="1.0" encoding="utf-8"?>
<!-- Generator: Adobe Illustrator 19.0.0, SVG Export Plug-In . SVG Version: 6.00 Build 0)  -->
<svg version="1.1" id="Layer_1" xmlns="http://www.w3.org/2000/svg" xmlns:xlink="http://www.w3.org/1999/xlink" x="0px" y="0px"
	 viewBox="0 0 192 192" style="enable-background:new 0 0 192 192;" xml:space="preserve">
<style type="text/css">
	.st0{enable-background:new    ;}
	.st1{fill:#8E270E;}
	.st2{fill:#80230D;}
	.st3{clip-path:url(#XMLID_2_);enable-background:new    ;}
	.st4{fill:#85240D;}
	.st5{fill:#8A260E;}
	.st6{fill:#8F270E;}
	.st7{fill:#E63F17;}
</style>
<g id="XMLID_8_">
	<g id="XMLID_26_">
		<g id="XMLID_29_" class="st0">
			<g id="XMLID_72_">
				<polygon id="XMLID_73_" class="st1" points="115.8,83.8 111.4,83.8 135.6,83.8 139.9,83.8 				"/>
			</g>
			<g id="XMLID_70_">
				<rect id="XMLID_71_" x="111.4" y="83.8" class="st2" width="4.3" height="65.9"/>
			</g>
			<g id="XMLID_68_">
				<polygon id="XMLID_69_" class="st2" points="139.9,83.8 135.6,83.8 93.8,41.4 98.2,41.4 				"/>
			</g>
			<g id="XMLID_66_">
				<polygon id="XMLID_67_" class="st1" points="80.6,149.6 76.2,149.6 111.4,149.6 115.8,149.6 				"/>
			</g>
			<g id="XMLID_64_">
				<polygon id="XMLID_65_" class="st1" points="56.4,83.8 52.1,83.8 76.2,83.8 80.6,83.8 				"/>
			</g>
			<g id="XMLID_58_" class="st0">
				<defs>
					<path id="XMLID_63_" class="st0" d="M98.2,188.9l-4.3,0c-50.7,0-91.8-41.7-91.8-93.2c0-51.5,41.1-93.2,91.8-93.2l4.3,0
						C47.5,2.5,6.4,44.2,6.4,95.7C6.4,147.2,47.5,188.9,98.2,188.9z"/>
				</defs>
				<clipPath id="XMLID_2_">
					<use xlink:href="#XMLID_63_"  style="overflow:visible;"/>
				</clipPath>
				<g id="XMLID_59_" class="st3">
					<path id="XMLID_62_" class="st4" d="M98.2,188.9h-4.3c-50.7,0-91.8-41.7-91.8-93.2c0-37.3,21.6-69.5,52.8-84.4l4.3,0
						C28,26.2,6.4,58.4,6.4,95.7C6.4,147.2,47.5,188.9,98.2,188.9"/>
					<path id="XMLID_61_" class="st5" d="M59.2,11.3l-4.3,0C61.7,8.1,69,5.6,76.7,4.1l4.3,0C73.4,5.6,66,8.1,59.2,11.3"/>
					<path id="XMLID_60_" class="st6" d="M81.1,4.1l-4.3,0C82.3,3.1,88,2.5,93.8,2.5l4.3,0C92.3,2.5,86.6,3.1,81.1,4.1"/>
				</g>
			</g>
			<g id="XMLID_31_">
				<path id="XMLID_32_" class="st7" d="M98.2,2.5c50.7,0,91.8,41.7,91.8,93.2c0,51.5-41.1,93.2-91.8,93.2
					c-50.7,0-91.8-41.7-91.8-93.2C6.4,44.2,47.5,2.5,98.2,2.5z M115.8,83.8h24.1L98.2,41.4L56.4,83.8h24.1v65.9h35.2V83.8"/>
			</g>
		</g>
	</g>
</g>
</svg>
